<svg width="35" height="36" xmlns="http://www.w3.org/2000/svg" xmlns:xlink="http://www.w3.org/1999/xlink" xml:space="preserve" overflow="hidden"><g transform="translate(-9 -5)"><g><g><g><g><path d="M2.32581 18.4018 4.624 20.6996 6.375 19.0414 6.375 30.4498 15.2292 30.4534 15.2292 21.6102 18.7708 21.6102 18.7708 30.4548 27.625 30.4583 27.625 19.0265 29.3849 20.6911 31.6742 18.4021 17 4.4625ZM26.9167 29.75 19.4792 29.7468 19.4792 20.9019 14.5208 20.9019 14.5208 29.7447 7.08333 29.7419 7.08333 18.3706 17 8.97954 26.9167 18.3568ZM4.63746 19.7115 3.34085 18.4167 17 5.43858 30.6591 18.4167 29.371 19.703 17 8.00417Z" fill="#FFFFFF" fill-rule="nonzero" fill-opacity="1" transform="matrix(1 0 0 1.02941 10 6)"/></g></g></g></g></g></svg>